<?xml version="1.0" encoding="UTF-8"?>
<svg width="546px" height="511px" viewBox="0 0 546 511" version="1.1" xmlns="http://www.w3.org/2000/svg" xmlns:xlink="http://www.w3.org/1999/xlink">
    <!-- Generator: Sketch 39.1 (31720) - http://www.bohemiancoding.com/sketch -->
    <title>Slice 1</title>
    <desc>Created with Sketch.</desc>
    <defs>
        <polygon id="path-1" points="0.001 182.94 545.475 182.94 545.475 0.871 0.001 0.871 0.001 182.94"></polygon>
    </defs>
    <g id="Page-1" stroke="none" stroke-width="1" fill="none" fill-rule="evenodd">
        <g id="logotipo_martins_vetor">
            <path d="M408.765,173.797 L333.129,44.904 L358.665,0.608 L446.552,150.226 C447.733,152.041 449.631,153.071 451.771,153.071 L545.474,153.071 L545.474,197.822 L451.771,197.822 C434.301,197.822 418.632,189.066 408.765,173.797" id="Fill-1" fill="#909E9D"></path>
            <path d="M360.564,199.946 L301.936,99.113 L328.92,52.303 L402.597,177.834 C413.839,195.261 431.758,205.269 451.771,205.269 L545.474,205.269 L545.474,250.08 L449.315,250.08 C412.561,250.08 379.372,231.342 360.564,199.946" id="Fill-2" fill="#909E9D"></path>
            <path d="M297.788,106.223 L354.382,203.561 C374.531,237.188 410.018,257.24 449.314,257.24 L545.475,257.24 L545.475,301.831 L450.142,301.831 C368.533,301.831 327.885,244.02 317.374,226.31 L272.737,149.685 L297.788,106.223" id="Fill-3" fill="#909E9D"></path>
            <path d="M136.71,173.797 L212.346,44.904 L186.811,0.608 L98.923,150.226 C97.743,152.041 95.844,153.071 93.704,153.071 L0.001,153.071 L0.001,197.822 L93.704,197.822 C111.175,197.822 126.843,189.066 136.71,173.797" id="Fill-4" fill="#909E9D"></path>
            <path d="M184.912,199.946 L243.54,99.113 L216.556,52.303 L142.879,177.834 C131.637,195.261 113.716,205.269 93.705,205.269 L0.001,205.269 L0.001,250.08 L96.161,250.08 C132.915,250.08 166.104,231.342 184.912,199.946" id="Fill-5" fill="#909E9D"></path>
            <path d="M247.688,106.223 L191.091,203.561 C170.946,237.188 135.458,257.24 96.161,257.24 L0,257.24 L0,301.831 L95.334,301.831 C176.943,301.831 217.59,244.02 228.102,226.31 L272.738,149.685 L247.688,106.223" id="Fill-6" fill="#909E9D"></path>
            <g id="Group-10" transform="translate(0.000000, 328.000000)">
                <mask id="mask-2" fill="white">
                    <use xlink:href="#path-1"></use>
                </mask>
                <g id="Clip-8"></g>
                <path d="M113.005,87.168 L98.801,2.525 L69.388,2.525 L56.562,51.664 L43.618,2.525 L14.204,2.525 L0.001,87.168 L29.513,87.168 L36.468,45.129 L47.543,87.168 L65.463,87.168 L76.538,45.129 L83.592,87.168 L113.005,87.168 L113.005,87.168 Z M166.332,56.192 L159.097,32.573 L151.8,56.192 L166.332,56.192 L166.332,56.192 Z M114.297,87.168 L140.446,2.525 L177.745,2.525 L203.895,87.168 L175.963,87.168 L172.713,76.66 L145.538,76.66 L142.23,87.168 L114.297,87.168 L114.297,87.168 Z M234.745,24.105 L240.187,24.105 C242.915,24.105 248.411,25.894 248.411,32.402 C248.411,38.43 243.61,40.698 240.187,40.698 L234.745,40.698 L234.745,24.105 L234.745,24.105 Z M234.745,87.168 L234.745,54.034 L249.506,87.168 L280.133,87.168 L265.091,52.693 C267.118,51.766 277.259,43.91 277.259,29.834 C277.259,10.731 261.317,2.525 250.38,2.525 L205.662,2.525 L205.662,87.168 L203.846,87.168 L234.745,87.168 L234.745,87.168 Z M301.141,30.19 L283.906,30.19 L283.906,2.525 L347.306,2.525 L347.306,30.19 L330.068,30.19 L330.068,87.168 L301.141,87.168 L301.141,30.19 L301.141,30.19 Z M353.861,87.168 L382.788,87.168 L382.788,2.525 L353.861,2.525 L353.861,87.168 Z M389.774,87.168 L389.774,2.525 L418.702,2.525 L444.723,46.785 L444.723,2.525 L473.814,2.525 L473.814,87.168 L444.299,87.168 L418.702,42.907 L418.702,87.168 L389.774,87.168 L389.774,87.168 Z M488.798,58.902 C495.014,62.975 501.438,65.197 506.267,65.652 C508.969,65.949 512.642,65.362 513.572,62.103 C514.197,58.638 511.734,56.593 507.558,55.794 C485.858,52.402 479.838,38.204 479.872,27.501 C479.872,18.357 487.978,0.871 515.909,0.871 C520.839,0.871 525.212,1.426 530.132,2.525 C534.505,3.635 539.416,5.856 544.337,8.612 L533.012,27.859 C529.745,25.857 523.582,23.791 519.933,23.357 C516.942,22.985 513.404,23.183 511.904,26.315 C511.165,27.947 511.816,31.618 518.028,32.842 C541.455,37.151 545.35,52.402 545.475,60.684 C545.475,72.482 535.274,87.621 510.68,87.621 C491.009,87.621 483.055,81.837 477.485,77.757 L488.798,58.902 L488.798,58.902 Z" id="Fill-7" fill="#22375E" mask="url(#mask-2)"></path>
            </g>
        </g>
    </g>
</svg>