<svg xmlns="http://www.w3.org/2000/svg" width="28.635" height="43.907" viewBox="0 0 28.635 43.907"><defs><style>.a{fill:#4270c1;}</style></defs><g transform="translate(0)"><g transform="translate(0)"><path class="a" d="M114.815,3.7V2.863A2.867,2.867,0,0,0,111.952,0H94.771a2.867,2.867,0,0,0-2.863,2.863V3.7c-1.414,1.414-2.863,2.475-2.863,4.642v8.827h0v9.544h0v8.844c0,2.135,1.317,3.1,2.863,4.642v.839a2.867,2.867,0,0,0,2.863,2.863h17.181a2.867,2.867,0,0,0,2.863-2.863V40.2c1.413-1.413,2.863-2.475,2.863-4.642V8.345C117.679,6.18,116.234,5.121,114.815,3.7ZM94.771,4.3V2.863h17.181V4.3c0,.679.373.965.839,1.432H93.932C94.4,5.258,94.771,4.973,94.771,4.3Zm17.181,35.316v1.432H94.771V39.611c0-.679-.373-.975-.839-1.441h18.859C112.322,38.639,111.952,38.934,111.952,39.611Zm2.863-13.533c-3.556,2.914-7.243,2.7-10.445-.369h0c-3.3-3.286-7.931-4.428-12.46-1.8V17.827c3.557-2.913,7.243-2.7,10.445.37h0c3.3,3.277,7.921,4.434,12.461,1.8v6.077Z" transform="translate(-89.044)"/></g></g></svg>