<svg xmlns="http://www.w3.org/2000/svg" width="41.632" height="39.897" viewBox="0 0 41.632 39.897"><defs><style>.a{fill:#4270c1;}</style></defs><g transform="translate(0 0)"><g transform="translate(0 0)"><path class="a" d="M178.56,26.535l-3.469-3.469a.866.866,0,0,0-.614-.253h-.867v-.867a.874.874,0,0,0-.253-.614l-6.939-6.939A10.92,10.92,0,0,0,158,10.67a10.669,10.669,0,0,0-8.42,3.723.868.868,0,0,0,.614,1.481c7,0,7.806,2.97,7.806,5.2a6,6,0,0,1-1.723,3.99l5.667,5.667c1.533-1.037,3.712-2.262,4.729-2.172v1.188a.874.874,0,0,0,.253.614l4.337,4.337a.874.874,0,0,0,.614.253h.03a.855.855,0,0,0,.623-.295l6.071-6.939A.869.869,0,0,0,178.56,26.535Z" transform="translate(-137.182 -10.67)"/><path class="a" d="M1.311,219.213a4.511,4.511,0,1,0,6.475,6.278l15.661-17.227-5.593-5.594Z" transform="translate(0 -187.058)"/></g></g></svg>