<svg xmlns="http://www.w3.org/2000/svg" width="22.456" height="40.942" viewBox="0 0 22.456 40.942"><defs><style>.a{fill:#4270c1;}</style></defs><g transform="translate(0)"><g transform="translate(0)"><path class="a" d="M131.873,0H118.041a4.346,4.346,0,0,0-4.349,4.268v32.41A4.305,4.305,0,0,0,118,40.942l13.854-.015a4.278,4.278,0,0,0,4.275-4.264l.02-32.4A4.269,4.269,0,0,0,131.873,0Zm-8.914,2.559h4.013a.64.64,0,1,1,0,1.279h-4.013a.64.64,0,1,1,0-1.279Zm-2.411.2a.662.662,0,0,1,.905,0A.641.641,0,0,1,121,3.856a.655.655,0,0,1-.454-.189.645.645,0,0,1,0-.905Zm4.289,36.911a1.914,1.914,0,1,1,1.914-1.914A1.917,1.917,0,0,1,124.836,39.674Zm9.326-5.13H115.931V6.077h18.232Z" transform="translate(-113.692)"/></g></g></svg>