<svg xmlns="http://www.w3.org/2000/svg" width="19.984" height="41.632" viewBox="0 0 19.984 41.632"><defs><style>.a{fill:#4270c1;}</style></defs><g transform="translate(0)"><g transform="translate(0)"><path class="a" d="M147.468,7.994h-3.11V6.386h.755a1.22,1.22,0,0,0,1.22-1.22V1.22A1.22,1.22,0,0,0,145.114,0h-3.95a1.22,1.22,0,0,0-1.22,1.22v.756l-.041,0h-3.6a3.188,3.188,0,0,0-3.184,3.184v.751a1.22,1.22,0,1,0,2.439,0V5.158a.746.746,0,0,1,.745-.745h3.6l.041,0v.756a1.22,1.22,0,0,0,1.22,1.22h.755V7.994h-3.11a1.22,1.22,0,0,0-1.22,1.22v1.745h11.1V9.214A1.22,1.22,0,0,0,147.468,7.994Z" transform="translate(-133.116)"/></g><g transform="translate(0.061 13.399)"><path class="a" d="M149.712,164.78H137.947a4.592,4.592,0,0,0-4.079,4.557v22.456a1.22,1.22,0,0,0,1.22,1.22h17.483a1.22,1.22,0,0,0,1.22-1.22V169.337A4.592,4.592,0,0,0,149.712,164.78Z" transform="translate(-133.868 -164.78)"/></g></g></svg>